<svg width="70" height="40" viewBox="0 0 70 40" fill="none" xmlns="http://www.w3.org/2000/svg">
<path d="M19.0909 20C19.0909 22.3795 19.9305 24.6367 21.4351 26.6627L31.8182 20.3175L21.2485 13.5946C19.8613 15.5537 19.0909 17.7208 19.0909 20Z" fill="#00227A" fill-opacity="0.37"/>
<path d="M21.4351 26.6627C19.9305 24.6367 19.0909 22.3795 19.0909 20C19.0909 17.7208 19.8613 15.5537 21.2485 13.5946L0 0L4.45455 20L0 40L21.4351 26.6627Z" fill="#00227A" fill-opacity="0.37"/>
<path fill-rule="evenodd" clip-rule="evenodd" d="M70 20C70 28.7664 58.6036 35.873 44.5454 35.873C34.3031 35.873 25.4737 32.1008 21.4351 26.6627L31.8182 20.3175L21.2485 13.5946C25.1969 8.01858 34.1424 4.12698 44.5454 4.12698C58.6036 4.12698 70 11.2336 70 20ZM54.0909 13.6508C55.8442 13.6508 57.2727 15.0721 57.2727 16.8254C57.2727 18.5787 55.8442 20 54.0909 20C52.3376 20 50.9091 18.5787 50.9091 16.8254C50.9091 15.0721 52.3376 13.6508 54.0909 13.6508Z" fill="#00227A" fill-opacity="0.37"/>
</svg>
