<svg width="53" height="30" viewBox="0 0 53 30" fill="none" xmlns="http://www.w3.org/2000/svg">
<path d="M38.5455 15C38.5455 16.7846 37.9097 18.4775 36.7706 19.997L28.9091 15.2381L36.9118 10.1959C37.9622 11.6653 38.5455 13.2906 38.5455 15Z" fill="#00227A" fill-opacity="0.1"/>
<path d="M36.7706 19.997C37.9097 18.4775 38.5455 16.7846 38.5455 15C38.5455 13.2906 37.9622 11.6653 36.9118 10.1959L53 0L49.6273 15L53 30L36.7706 19.997Z" fill="#00227A" fill-opacity="0.1"/>
<path fill-rule="evenodd" clip-rule="evenodd" d="M0 15C0 21.5748 8.6287 26.9048 19.2727 26.9048C27.0276 26.9048 33.7128 24.0756 36.7706 19.997L28.9091 15.2381L36.9118 10.1959C33.9223 6.01393 27.1493 3.09524 19.2727 3.09524C8.6287 3.09524 0 8.42518 0 15ZM12.0173 10.2381C10.7024 10.2381 9.63636 11.3041 9.63636 12.619C9.63636 13.934 10.7024 15 12.0173 15H12.0736C13.3886 15 14.4545 13.934 14.4545 12.619C14.4545 11.3041 13.3886 10.2381 12.0736 10.2381H12.0173Z" fill="#00227A" fill-opacity="0.1"/>
</svg>
