<svg xmlns="http://www.w3.org/2000/svg" viewBox="0 0 1440 320"><path fill="#48A5DA" fill-opacity="1" d="M0,224L34.3,186.7C68.6,149,137,75,206,85.3C274.3,96,343,192,411,229.3C480,267,549,245,617,197.3C685.7,149,754,75,823,90.7C891.4,107,960,213,1029,266.7C1097.1,320,1166,320,1234,277.3C1302.9,235,1371,149,1406,106.7L1440,64L1440,320L1405.7,320C1371.4,320,1303,320,1234,320C1165.7,320,1097,320,1029,320C960,320,891,320,823,320C754.3,320,686,320,617,320C548.6,320,480,320,411,320C342.9,320,274,320,206,320C137.1,320,69,320,34,320L0,320Z"></path></svg>
